<?xml version="1.0" standalone="no"?>
<!DOCTYPE svg PUBLIC "-//W3C//DTD SVG 20010904//EN"
        "http://www.w3.org/TR/2001/REC-SVG-20010904/DTD/svg10.dtd">
<svg version="1.0" xmlns="http://www.w3.org/2000/svg"
     width="512.000000pt" height="470.000000pt"
     viewBox="0 0 512.000000 470.000000"
     preserveAspectRatio="xMidYMid meet">
    <metadata>
        Created by potrace 1.16, written by Peter Selinger 2001-2019
    </metadata>
    <g transform="translate(0.000000,470.000000) scale(0.100000,-0.100000)"
       fill="#000000" stroke="none">
        <path d="M4714 4690 c-12 -5 -47 -35 -79 -67 -228 -233 -345 -634 -332 -1143
3 -153 8 -195 24 -240 37 -102 71 -157 147 -237 84 -89 83 -85 69 -226 l-6
-68 -62 -28 c-76 -35 -133 -90 -169 -163 -25 -51 -28 -68 -32 -204 -5 -157
-18 -258 -39 -310 -33 -82 -137 -158 -262 -192 l-71 -20 -6 21 c-3 12 -6 51
-6 87 0 90 -25 227 -61 340 -47 146 -100 241 -238 427 l-24 31 63 70 c197 221
290 458 290 741 0 300 -113 565 -332 777 -139 135 -265 214 -450 283 -189 71
-351 101 -548 101 -699 -1 -1267 -414 -1371 -998 -41 -231 -15 -337 93 -393
34 -18 63 -19 375 -19 311 0 341 2 373 19 46 24 66 60 85 151 32 154 116 275
224 324 193 86 408 41 507 -108 87 -131 60 -317 -65 -457 l-46 -51 -165 1
c-192 2 -302 -14 -456 -64 -200 -65 -369 -171 -525 -327 -229 -229 -354 -510
-374 -844 l-7 -111 -76 19 c-95 24 -162 58 -219 111 -79 73 -86 95 -95 317 -5
107 -13 215 -19 239 -19 85 -111 182 -200 211 -36 12 -36 13 -43 79 -3 36 -6
134 -6 217 0 167 5 183 74 225 57 35 136 122 167 184 49 100 48 149 -5 670
-25 240 -27 259 -38 287 -11 29 -57 51 -86 41 -45 -16 -52 -33 -52 -122 0 -47
4 -123 10 -168 5 -46 12 -174 16 -286 l7 -204 -24 -16 c-31 -22 -51 -21 -83 4
l-26 20 0 350 c0 381 -2 399 -56 419 -31 12 -87 -9 -103 -38 -7 -14 -11 -140
-11 -376 l0 -355 -26 -20 c-35 -28 -60 -26 -91 5 -26 26 -26 27 -19 132 28
427 33 597 19 620 -30 48 -96 48 -127 0 -8 -14 -19 -74 -26 -153 -18 -212 -38
-423 -50 -537 -22 -210 37 -333 231 -479 53 -40 62 -84 54 -258 -12 -246 -7
-223 -54 -237 -102 -30 -192 -112 -244 -222 -29 -62 -32 -77 -35 -194 -10
-315 46 -489 197 -610 l46 -38 0 -192 c0 -186 1 -194 24 -231 30 -49 56 -74
103 -98 131 -67 292 4 335 149 l17 59 71 -45 c164 -106 312 -154 534 -176
l144 -14 36 -43 c139 -171 288 -292 477 -385 l131 -65 -8 -42 c-40 -205 57
-406 235 -492 143 -69 301 -69 441 -1 89 44 135 85 180 160 54 92 68 154 62
272 l-5 101 97 47 c216 107 367 226 511 406 l36 44 136 12 c74 7 173 22 219
34 80 20 257 99 346 154 l41 26 7 -32 c40 -184 255 -261 394 -142 77 67 98
154 83 359 l-9 120 26 23 c103 93 143 153 175 262 33 119 46 361 25 490 -20
125 -112 248 -220 292 l-50 21 5 331 c4 182 8 437 11 566 10 493 8 1025 -4
1048 -22 42 -88 62 -137 42z" />
    </g>
</svg>
